<?xml version="1.0" standalone="no"?>
<!DOCTYPE svg PUBLIC "-//W3C//DTD SVG 20010904//EN"
 "http://www.w3.org/TR/2001/REC-SVG-20010904/DTD/svg10.dtd">
<svg version="1.0" xmlns="http://www.w3.org/2000/svg"
 width="249.000000pt" height="262.000000pt" viewBox="0 0 249.000000 262.000000"
 preserveAspectRatio="xMidYMid meet">
<metadata>
Created by potrace 1.16, written by Peter Selinger 2001-2019
</metadata>
<g transform="translate(0.000000,262.000000) scale(0.100000,-0.100000)"
fill="#000000" stroke="none">
<path d="M0 1709 c1 -687 4 -909 13 -906 6 2 20 -5 31 -15 11 -10 28 -18 38
-18 10 0 18 -4 18 -10 0 -5 5 -10 11 -10 8 0 8 4 -1 15 -6 8 -9 23 -5 35 4 11
2 20 -4 20 -6 0 -11 -4 -11 -10 0 -5 -11 -9 -24 -8 -27 2 -25 18 2 18 24 0 2
18 -28 22 -15 2 -26 11 -28 23 l-4 20 16 -20 c10 -13 15 -15 16 -6 0 11 5 10
25 -3 35 -23 49 -21 40 7 -3 12 -8 33 -10 47 -2 13 -11 30 -20 36 -14 10 -13
12 6 17 16 4 19 11 15 29 l-6 23 12 -23 c8 -16 18 -22 31 -18 13 3 17 0 13
-11 -3 -8 -6 -29 -6 -46 0 -26 -2 -29 -11 -17 -9 12 -10 11 -6 -5 3 -11 8 -29
13 -39 5 -14 4 -17 -4 -12 -7 4 -12 2 -12 -4 0 -25 26 -1 38 35 9 28 9 41 1
51 -8 10 -8 14 0 15 26 3 30 4 38 13 4 5 3 7 -3 3 -6 -3 -11 0 -11 8 0 22 12
18 25 -7 l11 -23 0 23 c1 12 5 22 10 22 5 0 7 -9 4 -20 -3 -12 0 -20 7 -20 9
0 9 -4 2 -12 -7 -9 -6 -16 2 -24 10 -9 15 -7 24 7 8 12 8 20 2 24 -6 4 -8 11
-5 16 4 5 1 9 -6 9 -7 0 -10 2 -8 5 10 9 49 -8 42 -19 -14 -21 -13 -46 2 -46
10 0 12 6 8 18 -6 15 -5 15 10 3 9 -7 17 -12 18 -10 0 2 2 11 4 20 1 9 41 55
89 103 82 82 94 90 248 166 111 55 167 88 175 104 7 13 21 30 30 37 16 13 17
12 4 -4 -8 -10 -15 -39 -15 -65 -1 -26 -4 -51 -8 -57 -3 -5 -8 -26 -12 -45 -5
-33 -5 -33 5 -7 6 15 15 27 20 27 11 0 23 -46 15 -59 -3 -5 -1 -11 5 -13 7 -2
9 -13 5 -25 -4 -13 -13 -20 -20 -17 -8 3 -15 -4 -18 -20 -4 -17 0 -26 11 -29
9 -3 5 -5 -9 -6 -19 -1 -26 -7 -27 -22 -2 -17 3 -20 21 -17 18 4 29 -6 59 -51
25 -37 34 -58 27 -65 -5 -5 -10 -19 -10 -29 0 -12 -5 -17 -14 -14 -10 4 -15
-10 -19 -57 -6 -67 0 -109 14 -100 5 3 7 10 4 15 -8 12 15 128 26 135 5 3 9
15 9 26 0 22 10 20 14 -4 1 -7 13 -34 26 -61 19 -37 21 -50 12 -59 -10 -10
-17 -10 -33 0 -28 18 -30 13 -18 -32 9 -31 8 -41 -5 -55 -17 -19 -22 -36 -7
-27 5 4 11 0 13 -6 3 -7 24 -14 49 -15 24 -2 50 -4 57 -5 8 -1 11 -22 10 -72
-1 -56 -2 -61 -5 -23 -3 38 -8 47 -23 47 -10 0 -26 -7 -35 -16 -14 -15 -14
-18 0 -33 8 -10 15 -30 15 -44 0 -21 -5 -27 -22 -27 -14 0 -18 3 -12 8 17 11
14 62 -3 62 -11 0 -14 7 -11 25 3 14 1 25 -3 25 -5 0 -9 -3 -9 -8 0 -4 -10
-12 -22 -17 -25 -11 -26 -39 -3 -65 25 -28 22 -44 -7 -45 -24 -1 -28 3 -30 30
0 16 0 42 1 57 1 15 -2 42 -7 60 -5 18 -5 45 -1 60 4 16 4 28 0 28 -17 0 -21
139 -6 217 8 43 15 80 15 82 0 2 -9 1 -21 -2 -15 -4 -19 -2 -15 8 2 7 -2 19
-11 27 -14 11 -16 10 -10 -13 7 -29 -9 -39 -64 -39 -25 0 -28 -6 -53 -103 -15
-56 -34 -112 -42 -124 -17 -28 -8 -53 20 -53 16 0 21 7 23 29 1 16 11 47 23
68 11 21 20 48 20 60 0 37 33 101 54 107 28 7 40 -8 27 -32 -6 -12 -11 -74
-11 -143 0 -104 3 -124 18 -135 10 -8 12 -13 5 -14 -7 0 -13 -7 -13 -15 0 -10
-10 -15 -27 -15 -26 0 -28 -3 -30 -48 -4 -77 -13 -110 -31 -117 -9 -5 -44 -18
-77 -31 -36 -14 -51 -23 -37 -23 12 -1 22 -7 22 -13 0 -7 13 -20 28 -29 24
-14 31 -14 47 -3 11 8 13 14 6 14 -23 0 -8 45 17 48 20 3 28 -10 23 -40 0 -5
3 -8 9 -8 5 0 10 14 10 31 0 17 5 39 10 49 7 14 7 33 -1 63 -13 54 -9 100 8
89 16 -10 26 -72 25 -152 -2 -82 6 -120 18 -99 6 9 8 -37 6 -121 -3 -110 -2
-123 5 -70 5 36 10 94 12 130 2 63 5 67 36 62 11 -2 20 -72 9 -78 -4 -3 -5
-11 -2 -19 3 -8 -2 -34 -11 -59 -9 -24 -15 -49 -11 -54 3 -5 -1 -18 -9 -28 -8
-10 -15 -22 -15 -26 0 -5 31 -8 69 -8 68 0 70 1 74 28 l4 27 2 -27 1 -28 205
0 205 0 0 49 c0 36 -4 51 -16 55 -16 6 -16 8 0 24 9 10 16 28 16 40 0 11 7 28
16 36 8 9 11 16 5 16 -6 0 -11 20 -11 46 0 28 -4 43 -10 39 -15 -9 -24 23 -11
39 10 11 8 17 -6 25 -17 9 -17 10 0 16 22 9 23 27 1 23 -25 -4 -26 53 -2 60
22 5 23 18 2 26 -10 4 -13 2 -8 -7 5 -7 1 -7 -10 2 -12 10 -15 22 -11 43 4 18
3 28 -5 28 -6 0 -8 5 -4 11 5 8 9 8 14 -1 5 -8 10 -9 14 -2 3 6 -8 24 -25 41
-16 17 -28 34 -26 38 5 11 -31 44 -37 35 -3 -5 -1 -26 4 -47 6 -26 5 -45 -3
-59 -7 -12 -15 -64 -18 -116 -3 -52 -4 6 -2 130 l4 225 37 105 c19 58 42 109
49 113 7 4 13 15 13 24 0 14 -2 14 -15 -3 -19 -26 -19 -19 5 49 11 31 20 66
20 77 0 12 9 30 19 42 l20 20 27 -21 c46 -36 105 -23 64 14 -17 16 -20 16 -20
2 0 -24 -41 -17 -50 9 -5 12 -14 25 -19 29 -6 3 -11 15 -11 26 0 26 26 25 135
-7 99 -28 176 -68 217 -111 27 -28 69 -114 103 -207 10 -26 20 -44 24 -39 7
10 18 10 44 -2 10 -4 28 -3 40 2 12 6 31 7 43 3 11 -5 44 -7 72 -7 29 1 52 -2
52 -6 0 -5 5 -5 10 -2 6 3 10 1 10 -5 0 -6 4 -9 8 -6 5 3 9 -1 9 -9 0 -8 -4
-12 -8 -10 -8 6 -34 -23 -27 -31 3 -2 21 -7 41 -9 31 -4 35 -2 32 15 -5 27 11
26 18 -1 4 -16 11 -20 26 -16 11 3 22 0 24 -7 3 -7 12 -4 25 8 19 16 22 17 28
3 6 -16 60 -21 70 -6 2 5 11 6 19 2 13 -4 15 106 15 881 l0 886 -1245 0 -1246
0 1 -911z m1440 411 c11 -14 24 -47 30 -74 6 -27 16 -56 22 -63 8 -10 6 -17
-8 -28 -10 -9 -14 -14 -9 -13 21 4 57 -15 66 -35 l9 -22 -3 22 c-1 12 3 22 8
23 6 0 11 -10 13 -23 3 -21 -2 -26 -32 -31 -41 -8 -45 -23 -18 -76 17 -34 17
-39 -2 -145 -11 -64 -26 -116 -35 -125 -25 -25 -106 -30 -198 -12 -193 39
-208 18 -35 -49 13 -5 20 -14 16 -20 -7 -12 46 -8 78 5 14 6 17 -1 23 -49 7
-52 5 -91 -11 -187 -6 -34 -4 -38 15 -38 18 0 21 6 21 48 0 34 3 43 10 32 15
-23 12 -83 -5 -107 -37 -53 -191 -123 -269 -123 -23 0 -66 11 -96 23 -48 19
-58 29 -80 72 -34 68 -36 169 -3 213 55 74 51 240 -8 317 -59 78 -72 144 -35
175 15 12 123 3 132 -11 8 -13 34 17 33 38 0 10 -3 13 -6 6 -2 -7 -12 -13 -20
-13 -13 0 -13 3 -3 15 7 8 10 22 6 30 -3 8 -1 25 3 37 8 21 10 21 16 5 7 -17
9 -17 26 -1 14 12 16 21 8 40 -8 21 -3 31 28 64 32 36 41 40 84 40 61 0 97 14
110 43 8 19 18 22 55 22 36 0 49 -5 64 -25z"/>
<path d="M722 1182 c-10 -10 -25 -22 -33 -26 -8 -4 -25 -13 -39 -21 l-25 -15
28 0 c25 0 27 -2 22 -32 -3 -18 -10 -49 -15 -68 -5 -19 -12 -80 -15 -134 -6
-105 -17 -148 -14 -55 1 46 -4 63 -36 114 -30 49 -36 67 -32 98 4 26 1 37 -8
37 -14 0 -75 -65 -75 -80 0 -20 16 -9 29 21 7 16 15 28 18 26 9 -10 31 -107
23 -107 -21 0 -15 -33 16 -95 19 -38 39 -74 45 -81 6 -7 8 -18 4 -24 -5 -8
-21 1 -46 26 -32 31 -39 34 -39 19 0 -15 -3 -16 -12 -7 -37 37 -44 -14 -17
-117 l23 -88 27 58 c16 33 31 59 34 59 3 0 1 -9 -5 -19 -5 -11 -7 -27 -4 -36
4 -10 2 -15 -6 -13 -7 2 -15 -3 -17 -9 -3 -9 5 -13 22 -13 15 0 25 5 23 11 -2
5 15 29 37 52 30 32 47 63 68 128 18 55 26 96 22 112 -4 15 -1 58 6 97 10 60
10 73 -1 80 -12 7 -12 13 -1 33 7 14 11 31 9 39 -3 7 2 18 10 24 10 8 12 13 4
18 -6 4 -20 -2 -30 -12z"/>
<path d="M1496 1028 c3 -79 6 -163 8 -186 2 -28 0 -40 -6 -34 -5 5 -11 74 -13
152 -4 144 -11 200 -23 200 -4 0 -8 -23 -9 -51 -1 -31 -10 -63 -22 -82 -25
-39 -32 -53 -70 -142 -30 -72 -31 -98 -2 -71 9 8 35 33 58 54 l42 39 6 -31 c4
-17 11 -45 17 -62 16 -46 -6 -92 -47 -96 -25 -3 -30 -7 -29 -28 1 -14 -5 -29
-12 -33 -23 -13 -16 -27 12 -25 20 2 31 12 42 38 l16 35 7 -55 c4 -30 12 -56
18 -58 7 -2 12 -67 13 -190 1 -103 3 -168 5 -144 5 46 9 51 29 25 7 -10 14
-13 14 -7 0 5 -9 20 -20 32 -17 18 -20 35 -20 131 0 130 4 145 31 128 10 -6
19 -18 19 -25 0 -7 5 -10 11 -6 7 4 25 7 40 6 42 -1 36 12 -21 49 -50 33 -70
68 -70 127 0 22 3 23 44 18 57 -8 176 -10 182 -3 8 7 -121 25 -192 26 -35 1
-44 30 -12 39 10 2 18 9 18 15 0 7 4 7 12 -1 18 -18 95 -15 106 4 8 14 16 15
61 5 29 -6 56 -9 60 -6 4 2 9 34 10 70 2 51 -1 67 -13 71 -9 3 -16 10 -16 16
0 5 4 7 9 3 17 -10 21 13 5 29 -24 24 -34 19 -34 -16 0 -17 -3 -28 -7 -25 -3
4 -12 2 -19 -4 -9 -7 -24 -7 -51 0 -21 6 -64 13 -95 16 -58 6 -67 16 -45 52 8
12 -8 93 -25 126 -20 40 -26 9 -22 -125z"/>
<path d="M1946 598 c-8 -12 -13 -25 -10 -30 3 -4 -2 -18 -10 -30 -9 -12 -16
-32 -16 -44 0 -11 -3 -23 -6 -27 -7 -7 -71 37 -95 66 -15 19 -17 16 -33 -49
-15 -66 -76 -439 -76 -469 0 -12 14 -15 59 -15 l59 0 16 47 c9 26 16 57 16 70
0 12 16 55 35 95 20 40 33 78 30 86 -3 7 8 39 24 70 43 84 63 252 30 252 -4 0
-15 -10 -23 -22z"/>
<path d="M480 404 c0 -18 5 -24 18 -22 13 2 18 -6 22 -37 11 -81 -12 -111 -46
-60 -9 14 -25 25 -35 25 -11 0 -19 5 -19 10 0 6 -5 10 -11 10 -6 0 -8 -8 -5
-17 4 -12 0 -10 -12 5 -20 26 -36 19 -21 -9 5 -11 6 -19 2 -20 -4 0 10 -9 32
-19 42 -20 46 -28 21 -42 -9 -5 -16 -20 -16 -34 0 -30 26 -94 38 -94 4 0 18
-13 30 -30 l22 -29 -22 -21 -22 -20 87 0 86 0 -19 46 c-21 48 -27 114 -10 114
6 0 10 7 10 16 0 8 -4 13 -9 10 -5 -3 -13 12 -19 34 -5 23 -6 40 -1 40 5 0 9
-4 9 -10 0 -17 18 -11 25 9 8 26 -13 67 -41 80 -14 6 -34 26 -45 45 -26 45
-49 54 -49 20z"/>
<path d="M1527 253 c-9 -15 3 -74 14 -68 13 8 26 -25 33 -85 12 -98 14 -100
57 -100 42 0 41 -3 54 120 l5 55 -20 -24 c-11 -13 -20 -28 -20 -35 0 -6 -10
-22 -21 -36 l-21 -25 6 49 c4 28 10 52 14 55 12 9 8 36 -4 36 -7 0 -21 11 -33
25 -11 14 -20 19 -21 13 0 -21 -20 -15 -29 9 -4 12 -10 17 -14 11z"/>
</g>
</svg>
